<?xml version="1.0" standalone="no"?>
<!DOCTYPE svg PUBLIC "-//W3C//DTD SVG 20010904//EN"
 "http://www.w3.org/TR/2001/REC-SVG-20010904/DTD/svg10.dtd">
<svg version="1.0" xmlns="http://www.w3.org/2000/svg"
 width="128.000000pt" height="128.000000pt" viewBox="0 0 128.000000 128.000000"
 preserveAspectRatio="xMidYMid meet">

<g transform="translate(0.000000,128.000000) scale(0.100000,-0.100000)"
fill="#000000" stroke="none">
<path d="M977 1205 c-28 -15 -64 -25 -88 -25 -47 0 -112 -25 -107 -41 2 -6 37
-20 78 -30 80 -21 105 -37 115 -76 7 -31 -16 -59 -96 -113 -31 -21 -112 -87
-180 -146 -124 -106 -361 -272 -480 -335 -35 -19 -86 -56 -114 -84 l-50 -50
46 -5 47 -5 -74 -50 c-81 -55 -96 -81 -40 -72 30 5 33 3 29 -14 -3 -10 -1 -19
4 -19 25 0 130 43 250 104 73 36 146 66 162 66 16 0 65 7 108 15 61 12 89 13
131 4 l52 -10 0 -58 c0 -53 3 -59 40 -96 22 -21 40 -43 40 -47 0 -4 -13 -8
-29 -8 -28 0 -81 -33 -81 -50 0 -5 16 0 35 12 33 19 40 20 95 8 45 -10 70 -10
104 -1 45 11 102 6 112 -10 3 -5 10 -9 16 -9 6 0 4 8 -5 18 -10 10 -17 21 -17
24 0 15 72 17 110 4 40 -14 41 -14 25 4 -10 11 -30 22 -47 25 -38 9 -30 30 10
30 18 0 31 4 29 10 -6 17 -68 17 -113 0 -33 -12 -48 -14 -63 -5 -34 17 -71 81
-71 120 0 31 5 38 45 59 71 38 147 128 205 242 27 55 50 107 50 115 0 8 5 14
10 14 6 0 10 58 10 155 0 85 -3 155 -7 155 -5 0 -16 19 -26 43 -21 53 -70 113
-105 131 -15 7 -47 16 -72 20 -38 5 -54 2 -93 -19z m-46 -1011 c21 -21 39 -42
39 -46 0 -4 -16 -8 -35 -8 -29 0 -40 6 -65 42 -36 50 -39 85 -7 97 19 7 22 5
25 -19 2 -16 20 -43 43 -66z"/>
</g>
</svg>
